<?xml version="1.0" standalone="no"?>
<!DOCTYPE svg PUBLIC "-//W3C//DTD SVG 20010904//EN"
 "http://www.w3.org/TR/2001/REC-SVG-20010904/DTD/svg10.dtd">
<svg version="1.0" xmlns="http://www.w3.org/2000/svg"
 width="1052.000000pt" height="1052.000000pt" viewBox="0 0 1052.000000 1052.000000"
 preserveAspectRatio="xMidYMid meet">
<metadata>
Created by potrace 1.11, written by Peter Selinger 2001-2013
</metadata>
<g transform="translate(0.000000,1052.000000) scale(0.100000,-0.100000)"
fill="#000000" stroke="none">
<path d="M7814 5739 c-661 -59 -1145 -472 -1249 -1064 -18 -105 -21 -351 -5
-470 40 -288 156 -534 348 -732 208 -215 431 -350 937 -568 598 -258 726 -339
809 -515 26 -56 31 -79 34 -167 5 -115 -10 -175 -60 -256 -66 -104 -207 -194
-368 -233 -106 -27 -372 -27 -485 0 -103 24 -205 64 -297 118 -96 56 -283 243
-363 360 -32 49 -62 88 -67 88 -7 0 -780 -443 -797 -456 -7 -6 89 -165 152
-254 80 -112 278 -308 397 -393 117 -83 360 -205 500 -251 122 -40 302 -79
445 -97 130 -16 474 -16 595 0 755 101 1224 499 1325 1126 19 118 19 360 -1
492 -60 406 -252 693 -634 948 -209 140 -369 220 -811 410 -374 161 -524 249
-608 354 -105 133 -120 351 -35 496 52 90 166 169 280 196 70 16 227 13 308
-5 154 -36 299 -147 406 -314 38 -58 58 -81 69 -77 15 6 729 462 745 476 12
10 -45 106 -130 219 -130 172 -316 331 -490 418 -250 125 -606 182 -950 151z"/>
<path d="M4730 4003 c0 -1072 -4 -1727 -10 -1796 -24 -253 -113 -396 -285
-458 -74 -26 -280 -38 -366 -20 -167 35 -300 150 -435 378 -38 63 -73 112 -79
109 -5 -2 -185 -110 -400 -240 -286 -174 -389 -241 -387 -253 6 -30 103 -193
162 -273 162 -218 391 -398 624 -491 224 -88 414 -122 686 -122 209 0 305 10
468 48 494 118 823 441 947 930 61 240 58 143 62 2093 l4 1782 -495 0 -496 0
0 -1687z"/>
</g>
</svg>
