<svg xmlns="http://www.w3.org/2000/svg" viewBox="0 0 24 24">
    <path d="M22 5.894a8.304 8.304 0 0 1-2.357.636 4.064 4.064 0 0 0 1.804-2.235c-.792.463-1.67.8-2.605.98A4.128 4.128 0 0 0 15.847 4c-2.266 0-4.104 1.808-4.104 4.04 0 .316.037.624.107.92a11.711 11.711 0 0 1-8.458-4.22 3.972 3.972 0 0 0-.555 2.03c0 1.401.724 2.638 1.825 3.362a4.138 4.138 0 0 1-1.858-.505v.05c0 1.958 1.414 3.59 3.29 3.961a4.169 4.169 0 0 1-1.852.07c.522 1.604 2.037 2.772 3.833 2.804a8.315 8.315 0 0 1-5.096 1.73c-.331 0-.658-.02-.979-.057A11.748 11.748 0 0 0 8.29 20c7.547 0 11.674-6.155 11.674-11.493 0-.175-.004-.349-.011-.522A8.265 8.265 0 0 0 22 5.894z"/>
</svg>
